<svg xmlns="http://www.w3.org/2000/svg" width="30" height="34.286" viewBox="0 0 30 34.286">
  <path id="calendar-alt-regular" d="M9.911,19.286H7.232a.806.806,0,0,1-.8-.8V15.8a.806.806,0,0,1,.8-.8H9.911a.806.806,0,0,1,.8.8v2.679A.806.806,0,0,1,9.911,19.286Zm7.232-.8V15.8a.806.806,0,0,0-.8-.8H13.661a.806.806,0,0,0-.8.8v2.679a.806.806,0,0,0,.8.8h2.679A.806.806,0,0,0,17.143,18.482Zm6.429,0V15.8a.806.806,0,0,0-.8-.8H20.089a.806.806,0,0,0-.8.8v2.679a.806.806,0,0,0,.8.8h2.679A.806.806,0,0,0,23.571,18.482Zm-6.429,6.429V22.232a.806.806,0,0,0-.8-.8H13.661a.806.806,0,0,0-.8.8v2.679a.806.806,0,0,0,.8.8h2.679A.806.806,0,0,0,17.143,24.911Zm-6.429,0V22.232a.806.806,0,0,0-.8-.8H7.232a.806.806,0,0,0-.8.8v2.679a.806.806,0,0,0,.8.8H9.911A.806.806,0,0,0,10.714,24.911Zm12.857,0V22.232a.806.806,0,0,0-.8-.8H20.089a.806.806,0,0,0-.8.8v2.679a.806.806,0,0,0,.8.8h2.679A.806.806,0,0,0,23.571,24.911ZM30,7.5V31.071a3.215,3.215,0,0,1-3.214,3.214H3.214A3.215,3.215,0,0,1,0,31.071V7.5A3.215,3.215,0,0,1,3.214,4.286H6.429V.8a.806.806,0,0,1,.8-.8H9.911a.806.806,0,0,1,.8.8V4.286h8.571V.8a.806.806,0,0,1,.8-.8h2.679a.806.806,0,0,1,.8.8V4.286h3.214A3.215,3.215,0,0,1,30,7.5ZM26.786,30.67V10.714H3.214V30.67a.4.4,0,0,0,.4.4H26.384A.4.4,0,0,0,26.786,30.67Z" fill="#bbb"/>
</svg>
